<svg width="34" height="40" viewBox="0 0 34 40" fill="none" xmlns="http://www.w3.org/2000/svg">
<g id="5BuZnz.tif">
<g id="Group">
<path id="Vector" d="M31.309 10.8384C29.6606 10.174 29.125 9.25457 29.3928 7.5433C29.7684 5.14228 28.0848 3.06594 25.6763 3.04694C25.028 3.04219 24.3683 3.24254 23.7307 3.40883C22.4954 3.73113 21.3793 3.35578 20.669 2.32553C20.5179 2.10617 20.3783 1.87969 20.224 1.66271C18.6442 -0.566459 15.3261 -0.551413 13.7658 1.69122C13.5993 1.93196 13.4499 2.18457 13.2768 2.42135C12.773 3.1095 12.0815 3.52049 11.212 3.51257C10.7221 3.50782 10.224 3.36528 9.74642 3.22907C8.62216 2.90836 7.54362 2.94479 6.51734 3.52762C5.01588 4.3789 4.34394 5.84786 4.63459 7.61694C4.89423 9.19201 4.30311 10.2151 2.78614 10.8146C2.62203 10.8787 2.45711 10.9397 2.29626 11.0102C-0.186577 12.1062 -0.781774 15.2199 1.132 17.1022C1.35162 17.3184 1.59085 17.5156 1.81537 17.7278C2.69551 18.5617 2.89963 19.7028 2.3624 20.7774C2.23748 21.026 2.09542 21.2668 1.97295 21.517C0.876448 23.7391 2.19176 26.3365 4.67623 26.8353C5.09671 26.9193 5.53269 26.932 5.99236 26.9811C5.91561 27.1671 5.85519 27.3247 5.78743 27.4799C4.60847 30.1732 3.42869 32.8656 2.24809 35.5572C2.12563 35.836 2.04235 36.1108 2.28238 36.3697C2.52161 36.6279 2.80655 36.5867 3.10864 36.4861C3.87937 36.2303 4.65419 35.9849 5.42737 35.7362C6.32711 35.4464 7.22602 35.1573 8.14209 34.8635C8.22537 35.0211 8.29558 35.147 8.35926 35.2761C9.05897 36.6896 9.76112 38.1024 10.4551 39.5191C10.5874 39.7875 10.7515 40.0005 11.0846 39.9997C11.4398 39.9997 11.6145 39.7748 11.7206 39.4795C11.7345 39.443 11.7565 39.4082 11.772 39.3726C12.8653 36.8734 13.9561 34.3734 15.0542 31.8765C15.126 31.7134 15.2265 31.5384 15.3645 31.4299C15.8796 31.026 16.4822 30.8091 17.1451 30.8732C18.0196 30.9579 18.7234 31.247 19.1014 32.1537C20.1244 34.6093 21.2242 37.0341 22.2872 39.4739C22.4121 39.7606 22.5623 39.9974 22.9199 39.9997C23.2751 40.0029 23.4351 39.7701 23.5723 39.4906C24.2655 38.0739 24.9676 36.6611 25.6673 35.2476C25.7294 35.1217 25.7988 34.9989 25.8665 34.8715C25.9996 34.9095 26.091 34.9332 26.1809 34.9617C27.7403 35.4646 29.3005 35.9666 30.8591 36.4727C31.1678 36.5732 31.4699 36.6485 31.7262 36.3745C31.981 36.1021 31.8789 35.817 31.7507 35.5263C31.0951 34.036 30.4428 32.5433 29.7904 31.0514C29.2017 29.7067 28.6139 28.3613 28.0048 26.9684C28.3143 26.9462 28.5812 26.924 28.849 26.9082C31.0494 26.7775 32.7737 24.7099 32.372 22.6138C32.2626 22.0436 32.003 21.4869 31.736 20.9611C31.0878 19.6822 31.2723 18.5577 32.3427 17.5948C32.5623 17.3968 32.7868 17.2036 32.9893 16.9906C33.6016 16.3483 33.9568 15.5905 33.9952 14.7123C34.0752 12.8909 33.1632 11.5843 31.309 10.8384ZM11.0683 37.9361C10.9825 37.792 10.9197 37.7009 10.8715 37.6035C10.282 36.4172 9.69662 35.2294 9.10714 34.0431C8.8573 33.5419 8.64094 33.45 8.09963 33.6234C6.70757 34.0685 5.31797 34.5183 3.82794 34.9982C4.97016 32.3889 6.08217 29.8469 7.20316 27.2851C7.92001 27.6827 8.31436 28.2552 8.50133 28.975C8.56419 29.2174 8.61155 29.4636 8.67278 29.7067C9.16021 31.6572 11.0658 32.8759 13.1168 32.5512C13.2057 32.537 13.298 32.5401 13.4311 32.533C12.6432 34.3346 11.87 36.1021 11.0683 37.9361ZM30.1839 34.9926C29.0246 34.6204 27.9469 34.2736 26.8683 33.9283C26.5458 33.8246 26.2241 33.72 25.9008 33.6195C25.3767 33.4571 25.1538 33.545 24.917 34.021C24.3447 35.1724 23.7772 36.327 23.2065 37.4799C23.1428 37.609 23.0734 37.7373 22.9575 37.9606C22.1476 36.1116 21.3752 34.3464 20.5824 32.5362C21.1686 32.5362 21.7295 32.6177 22.257 32.5211C23.8776 32.2242 24.9088 31.2668 25.3383 29.7147C25.4265 29.3963 25.4844 29.0701 25.5808 28.7549C25.7759 28.1182 26.1907 27.6312 26.8152 27.2978C27.9289 29.8406 29.0401 32.3794 30.1839 34.9926ZM32.0046 16.2699C31.776 16.4956 31.5254 16.7007 31.2935 16.9232C30.0949 18.0762 29.7929 19.7479 30.5154 21.2256C30.655 21.5115 30.8208 21.7855 30.9555 22.0729C31.736 23.7454 30.5848 25.596 28.6972 25.7283C28.1159 25.7687 27.5174 25.7885 26.9655 25.9453C25.4893 26.3658 24.6378 27.3818 24.2899 28.8151C24.2312 29.059 24.1846 29.306 24.1144 29.5468C23.6139 31.2398 21.5875 31.9557 20.0787 30.9706C19.797 30.7869 19.5357 30.5731 19.2581 30.3838C17.8448 29.4232 16.1213 29.4327 14.7244 30.406C14.459 30.5905 14.2067 30.7932 13.9365 30.9698C12.4073 31.9636 10.3849 31.2335 9.89012 29.5096C9.79949 29.1928 9.73907 28.8673 9.65171 28.5498C9.21899 26.9779 7.8498 25.8914 6.17361 25.7774C5.72701 25.7473 5.27061 25.7449 4.83789 25.6483C3.23845 25.2896 2.37873 23.6092 3.02781 22.1489C3.16171 21.8464 3.3299 21.559 3.47686 21.262C4.23453 19.7289 3.92346 18.0485 2.66367 16.8678C2.42853 16.6477 2.17788 16.4434 1.95254 16.2145C0.732752 14.9712 1.10179 12.9266 2.68326 12.1553C2.88901 12.0547 3.10374 11.9708 3.31683 11.8844C5.30082 11.0815 6.18749 9.55074 5.84866 7.49024C5.68211 6.47583 5.85356 5.5707 6.69124 4.86354C7.40074 4.26487 8.21393 4.07877 9.12347 4.30525C9.557 4.41374 9.98075 4.57291 10.42 4.64498C12.0203 4.90551 13.3037 4.37256 14.2688 3.11663C14.4876 2.83154 14.6623 2.514 14.8819 2.22971C15.949 0.843107 18.062 0.841523 19.1299 2.22575C19.3332 2.48945 19.5023 2.7777 19.6941 3.04931C20.6657 4.42641 22.2896 5.00845 23.9479 4.5737C24.2753 4.48739 24.5969 4.37969 24.926 4.29813C26.6275 3.87684 28.2743 5.15733 28.2196 6.94225C28.1844 7.26455 28.1248 7.67 28.1003 8.07782C28.0016 9.70278 28.8654 11.0838 30.3946 11.7593C30.6787 11.8844 30.9743 11.9866 31.2551 12.1181C32.9321 12.8981 33.3085 14.9839 32.0046 16.2699Z" fill="#ED3338"/>
<path id="Vector_2" d="M31.2554 12.1179C30.9745 11.9864 30.6789 11.8843 30.3948 11.7591C28.8656 11.0837 28.0018 9.70259 28.1006 8.07763C28.1251 7.66981 28.1847 7.26436 28.2198 6.94206C28.2745 5.15714 26.6277 3.87665 24.9262 4.29794C24.5972 4.3795 24.2755 4.4872 23.9481 4.57351C22.2899 5.00826 20.6659 4.42622 19.6944 3.04912C19.5025 2.77751 19.3335 2.48926 19.1302 2.22556C18.0623 0.841332 15.9493 0.842916 14.8822 2.22952C14.6625 2.51381 14.4878 2.83135 14.269 3.11644C13.304 4.37237 12.0205 4.90532 10.4202 4.64479C9.98098 4.57272 9.55724 4.41355 9.1237 4.30506C8.21417 4.07858 7.40098 4.26468 6.69148 4.86335C5.8538 5.57051 5.68234 6.47564 5.8489 7.49005C6.18773 9.55055 5.30106 11.0813 3.31707 11.8843C3.10398 11.9706 2.88925 12.0545 2.6835 12.1551C1.10203 12.9264 0.732992 14.971 1.95278 16.2143C2.17812 16.4432 2.42877 16.6475 2.66391 16.8676C3.9237 18.0483 4.23477 19.7287 3.4771 21.2618C3.33014 21.5588 3.16195 21.8462 3.02805 22.1487C2.37897 23.609 3.23869 25.2894 4.83813 25.6481C5.27085 25.7447 5.72725 25.7471 6.17385 25.7772C7.85003 25.8912 9.21923 26.9777 9.65195 28.5496C9.73931 28.8671 9.79973 29.1926 9.89036 29.5094C10.3851 31.2333 12.4075 31.9634 13.9367 30.9696C14.207 30.793 14.4592 30.5903 14.7246 30.4058C16.1215 29.4326 17.8451 29.4231 19.2584 30.3836C19.536 30.5729 19.7972 30.7867 20.0789 30.9704C21.5877 31.9555 23.6142 31.2397 24.1146 29.5466C24.1849 29.3059 24.2314 29.0588 24.2902 28.8149C24.638 27.3816 25.4896 26.3656 26.9657 25.9451C27.5176 25.7883 28.1161 25.7685 28.6974 25.7281C30.5851 25.5958 31.7363 23.7452 30.9557 22.0727C30.821 21.7853 30.6553 21.5113 30.5157 21.2254C29.7931 19.7477 30.0952 18.076 31.2937 16.9231C31.5256 16.7005 31.7763 16.4954 32.0049 16.2697C33.3088 14.9837 32.9324 12.8979 31.2554 12.1179ZM16.9821 26.3117C11.2628 26.2824 6.66372 21.7781 6.70373 16.2452C6.74292 10.7043 11.3877 6.26975 17.1127 6.30696C22.7634 6.34418 27.3511 10.8722 27.3103 16.3719C27.2694 21.8795 22.6336 26.3402 16.9821 26.3117Z" fill="#FFF1F1"/>
<path id="Vector_3" d="M22.9581 37.9607C22.1482 36.1116 21.3758 34.3465 20.583 32.5354C21.1692 32.5354 21.7309 32.617 22.2576 32.5204C23.8782 32.2234 24.9102 31.266 25.3397 29.7147C25.4279 29.3964 25.4858 29.0701 25.5822 28.7549C25.7773 28.1175 26.1921 27.6304 26.8166 27.2979C27.9295 29.8406 29.0407 32.3794 30.1845 34.9927C29.0252 34.6205 27.9474 34.2744 26.8697 33.9284C26.5472 33.8246 26.2255 33.7209 25.9022 33.6203C25.3781 33.4572 25.1552 33.5451 24.9184 34.021C24.3461 35.1732 23.7786 36.327 23.2079 37.48C23.1434 37.6099 23.0748 37.7374 22.9581 37.9615V37.9607Z" fill="#FFF1F1"/>
<path id="Vector_4" d="M13.4323 32.5328C12.6444 34.3344 11.8712 36.1019 11.0686 37.9359C10.9829 37.7918 10.9208 37.7007 10.8718 37.6033C10.2824 36.4171 9.69697 35.2292 9.10749 34.043C8.85765 33.5409 8.64129 33.4498 8.09998 33.6233C6.70874 34.0683 5.31832 34.5181 3.8291 34.998C4.97051 32.3879 6.08252 29.8467 7.20351 27.2842C7.92036 27.6817 8.31471 28.2542 8.50168 28.9741C8.56455 29.2164 8.6119 29.4627 8.67313 29.7058C9.16137 31.6562 11.0662 32.8741 13.1171 32.5495C13.2061 32.5352 13.2992 32.5384 13.4314 32.5312L13.4323 32.5328Z" fill="#FFF1F1"/>
<path id="Vector_5" d="M17.1134 6.30687C11.3884 6.26965 6.74355 10.7042 6.70436 16.2451C6.66435 21.778 11.2634 26.2823 16.9827 26.3116C22.6342 26.3401 27.2701 21.8794 27.3109 16.3718C27.3517 10.8721 22.764 6.34409 17.1134 6.30687ZM16.9925 25.123C11.9558 25.1072 7.90047 21.1382 7.92904 16.2538C7.95762 11.3916 12.0423 7.47333 17.0627 7.49471C22.048 7.5153 26.096 11.4755 26.0862 16.3227C26.0764 21.1897 21.9949 25.1388 16.9925 25.123Z" fill="#ED3338"/>
<path id="Vector_6" d="M17.0626 7.49423C12.0422 7.47285 7.95744 11.3911 7.92886 16.2533C7.90029 21.1377 11.9556 25.1067 16.9923 25.1225C21.9948 25.1384 26.0762 21.1892 26.086 16.3222C26.0958 11.4751 22.0478 7.51482 17.0626 7.49423ZM22.8275 14.4763C21.0117 16.5622 19.1804 18.6369 17.332 20.6951C16.5359 21.5812 15.1912 21.601 14.3658 20.7457C13.2873 19.6284 12.2357 18.4873 11.202 17.3319C10.477 16.5226 10.5791 15.3379 11.3817 14.6212C12.1973 13.8935 13.4293 13.9125 14.2131 14.6941C14.7438 15.2223 15.2386 15.7845 15.7913 16.3769C16.8356 15.197 17.8521 14.0471 18.8694 12.8989C19.1617 12.5679 19.4442 12.2289 19.7495 11.9114C20.5162 11.1155 21.7564 11.0459 22.5785 11.7403C23.4187 12.4499 23.5534 13.6417 22.8275 14.4763Z" fill="#FFF1F1"/>
<path id="Vector_7" d="M22.5792 11.7407C21.7571 11.0462 20.5169 11.1159 19.7502 11.9117C19.4449 12.2293 19.1624 12.5682 18.8701 12.8992C17.8528 14.0474 16.8363 15.1973 15.792 16.3772C15.2393 15.7849 14.7445 15.2226 14.2138 14.6944C13.43 13.9128 12.198 13.8938 11.3824 14.6216C10.5798 15.3382 10.4777 16.5229 11.2027 17.3322C12.2364 18.4876 13.288 19.6287 14.3665 20.7461C15.1919 21.6013 16.5366 21.5815 17.3327 20.6954C19.1811 18.6372 21.0125 16.5625 22.8282 14.4767C23.5541 13.642 23.4194 12.4502 22.5792 11.7407ZM21.9742 13.5866C21.9212 13.6911 21.8379 13.783 21.7587 13.8732C20.027 15.8363 18.2977 17.8026 16.5538 19.7554C16.3717 19.9589 16.0974 20.0848 15.8353 20.2678C15.5683 20.1015 15.3316 20.012 15.1772 19.8488C14.1746 18.7901 13.1867 17.7194 12.2029 16.6448C11.8469 16.256 11.869 15.7944 12.2282 15.4847C12.5817 15.1799 13.052 15.2187 13.4194 15.6059C14.0269 16.2457 14.6196 16.899 15.2221 17.5436C15.6541 18.0053 15.979 17.9966 16.4019 17.5175C17.7548 15.986 19.106 14.4529 20.4622 12.9238C20.5846 12.7852 20.7177 12.6387 20.8786 12.5539C21.2084 12.3797 21.544 12.4209 21.8158 12.6799C22.0845 12.9372 22.1432 13.2524 21.9742 13.5866Z" fill="#ED3338"/>
<path id="Vector_8" d="M15.8354 20.2676C15.5676 20.1013 15.3308 20.0118 15.1765 19.8487C14.1747 18.79 13.186 17.7193 12.2021 16.6447C11.8462 16.2559 11.8682 15.7942 12.2274 15.4846C12.581 15.1797 13.0512 15.2177 13.4187 15.605C14.0261 16.2456 14.6188 16.8981 15.2222 17.5427C15.6541 18.0044 15.9782 17.9949 16.4012 17.5166C17.754 15.9851 19.1053 14.4512 20.4614 12.922C20.5839 12.7843 20.7169 12.6378 20.8778 12.553C21.2085 12.3788 21.544 12.4192 21.8151 12.6789C22.0837 12.9363 22.1425 13.2507 21.9735 13.5856C21.9204 13.6902 21.8371 13.782 21.7579 13.8715C20.0262 15.8346 18.297 17.8009 16.5522 19.7537C16.3701 19.9572 16.0958 20.0831 15.8345 20.266L15.8354 20.2676Z" fill="#FFF1F1"/>
</g>
</g>
</svg>
