<svg width="34" height="35" viewBox="0 0 34 35" fill="none" xmlns="http://www.w3.org/2000/svg">
<path d="M29.4559 6.2628C29.3805 6.135 29.3401 5.96934 29.3387 5.82058C29.3284 4.80698 29.3353 3.79338 29.3325 2.77911C29.3298 1.6438 28.6471 0.962891 27.5071 0.962891C20.4617 0.962891 13.4163 0.962891 6.37089 0.962891C5.20831 0.962891 4.53173 1.6384 4.52968 2.79737C4.52762 3.87926 4.53242 4.96047 4.52488 6.04169C4.52419 6.18166 4.49952 6.33988 4.43028 6.45754C2.98802 8.91072 1.53823 11.3592 0.0884274 13.8083C0.0678629 13.8428 0.0301613 13.8671 0 13.8969V14.5731C0.0788306 14.8537 0.136411 15.1417 0.239919 15.4136C0.671089 16.5495 1.48202 17.34 2.59113 17.8316C2.82899 17.9371 2.89411 18.0601 2.89343 18.3076C2.88589 23.31 2.88726 28.3117 2.88794 33.3141C2.88794 33.991 3.02915 34.1336 3.70161 34.1336H30.4924C31.1546 34.1336 31.2951 33.9957 31.2958 33.3398C31.2958 28.3266 31.2985 23.3134 31.2889 18.3002C31.2882 18.0006 31.3773 17.8546 31.6522 17.7119C32.8799 17.0749 33.6874 16.1046 33.9431 14.7306C33.9534 14.6765 33.9808 14.6251 34 14.5731V13.9645C32.4837 11.3977 30.966 8.83229 29.4559 6.2628ZM28.512 6.84431C29.8165 9.02635 31.1079 11.2158 32.4008 13.4039C32.422 13.4405 32.4296 13.4844 32.4515 13.5466H25.6309C24.9516 11.2753 24.2716 9.00066 23.5827 6.69353C23.6656 6.68135 23.7356 6.66242 23.8055 6.66242C25.256 6.66039 26.7065 6.65634 28.1576 6.66851C28.279 6.66851 28.4544 6.74762 28.512 6.84431ZM24.5657 14.6549C24.5588 15.8571 23.0076 17.0729 21.3371 17.1926C19.5932 17.3177 17.8808 16.158 17.6327 14.6549H24.5657ZM17.5751 13.5507V6.68406C17.6492 6.6773 17.7362 6.66174 17.8226 6.66174C19.2614 6.66039 20.7009 6.66175 22.1398 6.65972C22.3043 6.65972 22.4318 6.6516 22.4955 6.86798C23.1406 9.06016 23.7993 11.249 24.4533 13.4391C24.4622 13.4695 24.454 13.5047 24.454 13.5507H17.5751ZM5.62714 2.76965C5.62919 2.25169 5.8321 2.04613 6.34552 2.04613C13.404 2.04478 20.4631 2.04478 27.5215 2.04613C28.0178 2.04613 28.2323 2.25304 28.2351 2.74125C28.2399 3.6737 28.2365 4.60615 28.2365 5.56904H5.65181C5.6429 5.4764 5.62714 5.39052 5.62714 5.30533C5.62508 4.4601 5.62371 3.61487 5.62714 2.76965ZM9.51383 13.5514C9.72633 12.842 9.93198 12.155 10.1369 11.468C10.588 9.95813 11.0356 8.44686 11.4976 6.93966C11.5305 6.83079 11.6656 6.67392 11.7547 6.67256C13.3052 6.65634 14.8572 6.66107 16.4297 6.66107V13.5514H9.51383ZM16.3625 14.6671C16.15 16.0647 14.6063 17.1899 12.907 17.2C11.2008 17.2102 9.64681 16.0938 9.40895 14.6671H16.3625ZM1.68423 13.2626C2.92496 11.1617 4.17048 9.06286 5.40298 6.95724C5.53528 6.73207 5.67718 6.6516 5.9404 6.65431C7.31137 6.66851 8.68234 6.66039 10.0526 6.66039H10.4269C9.73456 8.97766 9.0525 11.2618 8.36907 13.5493H1.53754C1.59512 13.4364 1.63419 13.3465 1.68423 13.2626ZM1.1852 14.6556H8.12161C8.05786 15.9227 6.49016 17.1209 4.80936 17.196C3.06891 17.2737 1.38948 16.1073 1.1852 14.6556ZM11.0041 33.0233H6.77121C6.76504 32.9016 6.75339 32.7819 6.75339 32.6623C6.75202 28.9554 6.75544 25.2493 6.74653 21.5425C6.74585 21.2429 6.81234 21.1354 7.14 21.1415C8.30464 21.1618 9.46927 21.1496 10.6346 21.1496H11.0041V33.0233ZM16.3454 33.0308H12.1331V21.1706H16.3454V33.0308ZM30.1784 33.0342H17.4716V20.9069C17.4716 20.2178 17.3215 20.0677 16.6305 20.0677C13.249 20.067 9.86686 20.067 6.48536 20.0677C5.80673 20.0677 5.65593 20.2144 5.65593 20.8791C5.65524 24.7793 5.65524 28.6789 5.65524 32.5784V33.0301H4.00528V18.2535C5.99661 18.405 7.60613 17.764 8.77488 16.1046C9.76677 17.5456 11.1542 18.2738 12.8871 18.2725C14.6104 18.2711 15.9958 17.5591 16.9959 16.0972C17.9857 17.5415 19.3725 18.2704 21.104 18.2725C22.8273 18.2738 24.2133 17.5645 25.2183 16.1033C26.4288 17.8174 28.1124 18.4591 30.1784 18.2265V33.0342ZM29.3565 17.2C27.6497 17.2095 26.0909 16.0877 25.8612 14.6664H32.8148C32.5941 16.0715 31.0558 17.1906 29.3565 17.2Z" fill="#ED3338"/>
<path d="M30.178 18.226V33.0337H17.4712V20.9064C17.4712 20.2173 17.3211 20.0672 16.6301 20.0672C13.2486 20.0665 9.86646 20.0665 6.48496 20.0672C5.80633 20.0672 5.65553 20.2139 5.65553 20.8786C5.65484 24.7788 5.65484 28.6784 5.65484 32.5779V33.0296H4.00488V18.253C5.99621 18.4045 7.60573 17.7635 8.77448 16.1041C9.76637 17.5451 11.1538 18.2733 12.8867 18.272C14.61 18.2706 15.9954 17.5586 16.9955 16.0967C17.9853 17.541 19.3721 18.2699 21.1036 18.272C22.8269 18.2733 24.2129 17.564 25.2179 16.1028C26.4284 17.8169 28.112 18.4586 30.178 18.226Z" fill="#FFF1F1"/>
<path d="M28.2374 5.56884H5.65274C5.64383 5.4762 5.62806 5.39033 5.62806 5.30445C5.62601 4.45923 5.62464 3.614 5.62806 2.76945C5.63012 2.2515 5.83371 2.04594 6.34714 2.04594C13.4056 2.04458 20.464 2.04458 27.5224 2.04594C28.0187 2.04594 28.2333 2.25285 28.236 2.74105C28.2415 3.6735 28.2374 4.60663 28.2374 5.56884Z" fill="#FFF1F1"/>
<path d="M11.0046 21.15V33.0237H6.77175C6.76558 32.902 6.75393 32.7823 6.75393 32.6626C6.75256 28.9558 6.75599 25.2496 6.74708 21.5428C6.74639 21.2433 6.81288 21.1358 7.14054 21.1418C8.30518 21.1621 9.46982 21.15 10.6351 21.15H11.0046Z" fill="#FFF1F1"/>
<path d="M16.3461 21.1709H12.1338V33.0311H16.3461V21.1709Z" fill="#FFF1F1"/>
<path d="M16.4285 13.5504H9.5127C9.72451 12.8418 9.93084 12.1548 10.1358 11.4678C10.5868 9.95718 11.0345 8.44592 11.4958 6.93871C11.5287 6.83052 11.6637 6.67297 11.7529 6.67229C13.3041 6.65607 14.8554 6.6608 16.4285 6.6608V13.5511V13.5504Z" fill="#FFF1F1"/>
<path d="M24.455 13.5505H17.5762V6.68454C17.6502 6.67778 17.7373 6.66222 17.8236 6.66222C19.2625 6.66087 20.7013 6.66222 22.1408 6.6602C22.3053 6.6602 22.4328 6.65208 22.4966 6.86846C23.1416 9.06132 23.8004 11.2494 24.4543 13.4396C24.4632 13.47 24.4557 13.5052 24.4557 13.5512L24.455 13.5505Z" fill="#FFF1F1"/>
<path d="M10.4274 6.66015C9.73579 8.97674 9.05304 11.2616 8.36962 13.5484H1.53809C1.59498 13.4355 1.63474 13.3462 1.68409 13.2617C2.92482 11.1608 4.17103 9.06194 5.40353 6.95631C5.53514 6.73115 5.67704 6.65068 5.94095 6.65339C7.31192 6.66759 8.6822 6.66015 10.0532 6.66015C10.1656 6.66015 10.278 6.66015 10.4268 6.66015H10.4274Z" fill="#FFF1F1"/>
<path d="M32.4515 13.5461H25.6303C24.9516 11.2748 24.2716 9.00017 23.582 6.69304C23.6657 6.68087 23.7349 6.66126 23.8048 6.66126C25.2553 6.65923 26.7065 6.65585 28.157 6.66735C28.2783 6.66802 28.4538 6.74646 28.512 6.84315C29.8165 9.02519 31.108 11.214 32.4001 13.4028C32.4213 13.4386 32.4296 13.4826 32.4515 13.5455V13.5461Z" fill="#FFF1F1"/>
<path d="M1.18457 14.6543H8.12098C8.05723 15.9215 6.48953 17.1197 4.80872 17.1947C3.06828 17.2725 1.38884 16.1061 1.18457 14.6543Z" fill="#FFF1F1"/>
<path d="M16.3637 14.668C16.1512 16.0656 14.6075 17.1901 12.9082 17.2009C11.202 17.2111 9.64802 16.0947 9.41016 14.668H16.3637Z" fill="#FFF1F1"/>
<path d="M17.6328 14.6553H24.5651C24.5583 15.8582 23.007 17.0733 21.3372 17.193C19.5933 17.3181 17.8803 16.1584 17.6328 14.6553Z" fill="#FFF1F1"/>
<path d="M32.8149 14.667C32.5935 16.0721 31.0559 17.1912 29.3566 17.2006C27.6498 17.2101 26.0903 16.0883 25.8613 14.667H32.8149Z" fill="#FFF1F1"/>
</svg>
