<svg width="38" height="31" viewBox="0 0 38 31" fill="none" xmlns="http://www.w3.org/2000/svg">
<g id="VOvayY.tif">
<g id="Group">
<path id="Vector" d="M37.9992 8.31058C37.9992 7.54503 37.7323 6.92306 37.1568 6.41344C36.0639 5.44552 34.988 4.45826 33.8996 3.48588C32.9129 2.60427 31.9405 1.70405 30.9204 0.861869C29.9932 0.0955709 28.9092 -0.175237 27.7204 0.111938C26.9159 0.306117 26.2691 0.780775 25.6661 1.32388C23.8 3.00378 21.9412 4.69261 20.0632 6.35987C19.4342 6.9186 19.1509 7.58446 19.1583 8.4192C19.1754 10.4116 19.165 12.404 19.1658 14.3963V14.8122H15.3695C15.4148 14.6954 15.449 14.6054 15.4855 14.5161C16.0119 13.2275 16.2713 11.8928 16.1814 10.4956C16.0758 8.86931 15.1925 7.64249 13.794 7.19908C13.1858 7.00639 12.9115 7.16188 12.7717 7.77641C12.6461 8.32993 12.5041 8.88121 12.3955 9.4392C12.1033 10.9361 11.542 12.2537 10.1212 13.0378C8.90184 13.7119 7.95463 14.6656 7.25203 15.8687C7.17173 16.0048 7.05872 16.1268 6.94274 16.2369C6.6037 16.5568 6.19924 16.6922 5.73679 16.655C5.61114 15.5971 5.14348 15.1879 4.08921 15.1879C3.29739 15.1879 2.50408 15.2177 1.71449 15.1797C0.886243 15.1403 0.301115 15.4319 0 16.225V29.9626C0.26394 30.4923 0.605947 30.9394 1.26096 30.9484C2.3249 30.9632 3.38884 30.9737 4.45204 30.9446C5.17025 30.9246 5.68177 30.3599 5.71003 29.6367C5.7182 29.4448 5.71151 29.2528 5.71151 29.014C6.0446 29.1353 6.32192 29.2335 6.59776 29.3376C7.93158 29.8413 9.28623 30.3063 10.7219 30.3309C13.6647 30.3814 16.6089 30.4015 19.5516 30.3636C20.1933 30.3554 20.8304 30.3658 21.4706 30.3703C26.2081 30.4023 30.9457 30.3926 35.6832 30.3777C37.078 30.3733 37.9999 29.4158 37.9999 28.0245C38.0007 21.4537 37.9955 14.8821 37.9999 8.31058H37.9992ZM4.0959 29.7781C3.25576 29.758 2.41412 29.7647 1.57323 29.7759C1.29665 29.7796 1.18067 29.7067 1.18141 29.4001C1.19033 25.1803 1.19033 20.9604 1.18141 16.7406C1.18067 16.4304 1.30111 16.3671 1.57769 16.3716C2.43048 16.3842 3.28475 16.3887 4.13754 16.3694C4.45947 16.3619 4.53159 16.4869 4.5301 16.7823C4.52044 18.8736 4.5249 20.9649 4.5249 23.0562C4.5249 25.1476 4.51746 27.2389 4.53233 29.3302C4.53456 29.6702 4.44088 29.787 4.0959 29.7781ZM21.2862 25.5895C19.7524 25.6111 18.2185 25.5992 16.6847 25.6006C16.5494 25.6006 16.4096 25.5947 16.2788 25.6245C15.9606 25.6959 15.7836 25.9027 15.8052 26.2353C15.826 26.5663 16.02 26.7627 16.3502 26.7784C16.7702 26.797 17.191 26.7865 17.6119 26.7873C18.2423 26.7888 18.8736 26.7769 19.504 26.7917C20.2237 26.8081 20.7524 27.3304 20.7509 27.9955C20.7494 28.6487 20.2364 29.1933 19.5375 29.1933C16.6304 29.1933 13.7241 29.1903 10.8186 29.1464C9.41485 29.1256 8.10705 28.6368 6.80965 28.148C6.45352 28.0141 5.95463 27.9702 5.78363 27.7121C5.59925 27.4331 5.71449 26.9502 5.71449 26.5567C5.71151 23.8091 5.713 21.0616 5.713 18.3141V17.8618C6.97694 17.8625 7.83567 17.2554 8.44162 16.2392C8.94719 15.3933 9.61188 14.7133 10.4743 14.2274C10.678 14.1129 10.8609 13.9611 11.058 13.8331C12.2944 13.0296 13.0364 11.8921 13.3591 10.4622C13.5033 9.82383 13.6676 9.19071 13.8327 8.51741C14.3777 8.7845 14.6699 9.2346 14.8371 9.77548C15.0989 10.6251 15.0542 11.4911 14.8899 12.3474C14.7026 13.3235 14.4044 14.2594 13.8163 15.0882C13.7115 15.2355 13.687 15.551 13.7754 15.6968C13.8743 15.859 14.1442 16.0026 14.342 16.0063C15.7026 16.0323 17.0632 16.0204 18.4238 16.0204C19.2654 16.0204 20.1063 16.0145 20.9472 16.0227C21.7256 16.0308 22.2669 16.5368 22.2639 17.2331C22.2609 17.928 21.7137 18.4294 20.9368 18.4324C19.5264 18.4376 18.1159 18.4339 16.7063 18.4339C16.5821 18.4346 16.458 18.4294 16.3353 18.4428C16.0238 18.4756 15.8349 18.6526 15.8059 18.9644C15.7762 19.2939 15.9375 19.5119 16.258 19.5908C16.3873 19.6228 16.5271 19.6205 16.6624 19.6205C18.4312 19.6228 20.2007 19.6183 21.9695 19.6243C22.681 19.6272 23.1918 20.0788 23.2349 20.7164C23.284 21.4515 22.7531 22.0124 21.9851 22.0147C20.2037 22.0206 18.4223 22.0169 16.6416 22.0169C16.5301 22.0169 16.4156 22.0057 16.3078 22.0273C15.9903 22.0898 15.8007 22.2803 15.8037 22.6151C15.8059 22.9506 15.9985 23.1388 16.3167 23.1954C16.4371 23.2169 16.5635 23.2043 16.687 23.2043C18.258 23.205 19.829 23.2013 21.4 23.2073C21.9732 23.2095 22.4118 23.5406 22.5717 24.0599C22.7219 24.5509 22.5672 25.094 22.1204 25.3626C21.881 25.5062 21.5672 25.5858 21.2862 25.5895ZM36.8118 28.0305C36.8118 28.7492 36.4148 29.1598 35.701 29.1918C35.4542 29.203 35.2059 29.1948 34.959 29.1948C30.6795 29.197 26.4007 29.1993 22.1219 29.2008C21.9784 29.2015 21.8356 29.2015 21.6319 29.2015C22.0185 28.3764 22.0416 27.6012 21.6245 26.8059C22.5583 26.6482 23.2542 26.1958 23.6223 25.3291C23.994 24.4534 23.8223 23.6395 23.2884 22.8859C24.9442 21.7208 24.7368 19.506 23.0267 18.6206C23.5791 17.6951 23.6356 16.7547 23.0022 15.8463C22.3717 14.9417 21.4297 14.7609 20.3539 14.8457V14.4462C20.3524 12.4292 20.3591 10.4123 20.3464 8.39614C20.3427 7.9133 20.5093 7.5547 20.8713 7.23181C22.7189 5.58688 24.5516 3.92483 26.3903 2.26948C26.5278 2.14598 26.6691 2.02471 26.8141 1.90865C28.0178 0.945938 29.1635 0.917667 30.3419 1.91683C31.652 3.02908 32.9122 4.2001 34.1932 5.34732C34.9115 5.99086 35.6222 6.64407 36.3479 7.27943C36.6579 7.55098 36.8118 7.86717 36.8118 8.28231C36.8088 14.865 36.8126 21.4478 36.8118 28.0305Z" fill="#ED3338"/>
<path id="Vector_2" d="M36.8121 8.28303C36.8121 7.86789 36.6582 7.5517 36.3482 7.28014C35.6225 6.64479 34.9118 5.99157 34.1935 5.34803C32.9125 4.20082 31.6523 3.0298 30.3423 1.91755C29.1638 0.918384 28.0181 0.946655 26.8144 1.90936C26.6694 2.02542 26.5281 2.14669 26.3906 2.27019C24.5519 3.92555 22.7192 5.58759 20.8716 7.23253C20.5096 7.55542 20.343 7.91401 20.3467 8.39686C20.3594 10.413 20.3527 12.43 20.3542 14.4469V14.8464C21.43 14.7616 22.372 14.9424 23.0025 15.8471C23.636 16.7555 23.5794 17.6958 23.027 18.6214C24.7371 19.5067 24.9445 21.7215 23.2887 22.8866C23.8226 23.6402 23.9943 24.4541 23.6226 25.3298C23.2545 26.1965 22.5586 26.6489 21.6248 26.8066C22.0419 27.6019 22.0189 28.3771 21.6322 29.2022C21.836 29.2022 21.9787 29.2022 22.1222 29.2015C26.401 29.2 30.6798 29.1978 34.9593 29.1955C35.2062 29.1955 35.4545 29.2037 35.7014 29.1925C36.4151 29.1606 36.8121 28.7499 36.8121 28.0312C36.8129 21.4485 36.8092 14.8658 36.8121 8.28303ZM28.5668 3.74476C29.746 3.74029 30.6984 4.68589 30.6947 5.85766C30.691 7.01008 29.746 7.96163 28.5943 7.97204C27.4293 7.9832 26.4731 7.0257 26.4746 5.84873C26.4761 4.68292 27.404 3.74922 28.5668 3.74476ZM30.6791 23.725C30.2218 23.9527 29.7103 24.0732 29.1727 24.2607C29.1727 24.4489 29.1824 24.6945 29.1705 24.9392C29.1534 25.2807 28.9311 25.5054 28.6166 25.5195C28.2843 25.5351 28.0255 25.3172 27.9958 24.966C27.975 24.7212 27.9921 24.4727 27.9921 24.2005C27.7579 24.1387 27.5326 24.0903 27.3148 24.0182C26.1854 23.6462 25.3884 22.932 25.0456 21.7676C24.9386 21.4046 25.1021 21.0824 25.4159 20.9872C25.7438 20.8875 26.0783 21.0393 26.1675 21.4046C26.4151 22.4231 27.4352 23.0875 28.749 23.0071C29.2292 22.9781 29.7348 22.8531 30.1675 22.6448C31.1913 22.1508 31.256 20.9054 30.3289 20.2328C29.749 19.8125 29.0545 19.7284 28.3832 19.5625C27.8471 19.4301 27.2947 19.2969 26.8062 19.0514C24.9185 18.1028 24.7861 15.6514 26.5549 14.4878C26.9705 14.214 27.4642 14.0615 27.9891 13.8227C27.9891 13.6441 27.9794 13.4098 27.9906 13.1762C28.0099 12.7953 28.2516 12.5572 28.595 12.5624C28.9371 12.5669 29.1616 12.8087 29.1735 13.1955C29.1802 13.4172 29.175 13.6397 29.175 13.8867C29.3229 13.9261 29.462 13.9626 29.6003 14.0005C30.6263 14.2847 31.3727 14.9029 31.8233 15.8694C32.004 16.2555 31.8962 16.5992 31.5638 16.7488C31.2441 16.8923 30.9259 16.7726 30.7549 16.382C30.1579 15.0205 28.4293 14.7013 27.2411 15.4446C26.2099 16.0903 26.2397 17.4541 27.3274 17.9853C27.8062 18.2189 28.3527 18.3312 28.8798 18.4473C29.633 18.6132 30.3705 18.8007 31.0099 19.2582C32.6872 20.4575 32.5229 22.8077 30.6791 23.725Z" fill="#FFF1F1"/>
<path id="Vector_3" d="M5.71279 17.8619C6.97673 17.8634 7.83546 17.2556 8.44215 16.2393C8.94699 15.3934 9.61241 14.7134 10.4749 14.2276C10.6786 14.113 10.8615 13.9605 11.0585 13.8326C12.2949 13.0291 13.0369 11.8915 13.3596 10.4623C13.5039 9.824 13.6689 9.19013 13.8332 8.51758C14.3782 8.78467 14.6711 9.23477 14.8377 9.7749C15.1001 10.6245 15.0548 11.4905 14.8905 12.3468C14.7031 13.3229 14.4057 14.2589 13.8176 15.0877C13.7128 15.2357 13.6875 15.5504 13.7767 15.6962C13.8756 15.8592 14.1455 16.002 14.3433 16.0057C15.7031 16.0325 17.0644 16.0199 18.425 16.0199C19.2659 16.0199 20.1076 16.0139 20.9484 16.0221C21.7261 16.0295 22.2681 16.5362 22.2652 17.2325C22.2622 17.9267 21.715 18.4289 20.938 18.4318C19.5276 18.437 18.118 18.4333 16.7076 18.4341C16.5841 18.4341 16.4592 18.4296 16.3366 18.4423C16.025 18.4757 15.8362 18.6521 15.8072 18.9645C15.7767 19.2941 15.9388 19.5121 16.2592 19.591C16.3886 19.6229 16.5284 19.6207 16.6637 19.6207C18.4325 19.6229 20.2012 19.6177 21.97 19.6244C22.6823 19.6267 23.1931 20.079 23.2354 20.7166C23.2845 21.4516 22.7536 22.0126 21.9856 22.0148C20.2042 22.02 18.4228 22.0163 16.6421 22.0171C16.5306 22.0171 16.4169 22.0059 16.3091 22.0267C15.9908 22.0892 15.802 22.2797 15.8042 22.6145C15.8065 22.95 15.999 23.1375 16.318 23.1948C16.4384 23.2164 16.5648 23.2037 16.6882 23.2037C18.2592 23.2037 19.8302 23.2 21.4012 23.2067C21.9745 23.2089 22.4131 23.54 22.5722 24.0593C22.7224 24.5503 22.5678 25.0934 22.1209 25.362C21.8815 25.5056 21.5685 25.5852 21.2867 25.5889C19.7529 25.6105 18.2191 25.5986 16.6853 25.6001C16.5499 25.6001 16.4102 25.5941 16.2793 25.6239C15.9604 25.6953 15.7841 25.9021 15.805 26.2347C15.8258 26.5658 16.0206 26.7629 16.3499 26.7778C16.77 26.7971 17.1908 26.7867 17.6117 26.7875C18.2429 26.7882 18.8734 26.777 19.5038 26.7912C20.2235 26.8075 20.7522 27.3298 20.7507 27.9957C20.7492 28.6489 20.2362 29.1935 19.5373 29.1935C16.631 29.1935 13.7239 29.1905 10.8184 29.1466C9.41539 29.1258 8.10758 28.6362 6.80944 28.1482C6.45331 28.0143 5.95443 27.9704 5.78342 27.7115C5.59904 27.4325 5.71428 26.9496 5.71428 26.5561C5.71131 23.8086 5.71279 21.0611 5.71279 18.3135V17.8605V17.8619Z" fill="#FFF1F1"/>
<path id="Vector_4" d="M4.52415 23.0573C4.52415 25.1486 4.51672 27.24 4.53159 29.3313C4.53382 29.6713 4.44014 29.7881 4.09516 29.7799C3.25427 29.7598 2.41338 29.7665 1.57248 29.7769C1.29591 29.7806 1.18066 29.7085 1.18066 29.4012C1.18959 25.1814 1.18959 20.9615 1.18066 16.7417C1.18066 16.4307 1.29962 16.3682 1.5762 16.3719C2.42973 16.3853 3.28326 16.3898 4.13605 16.3704C4.45872 16.363 4.5301 16.488 4.52861 16.7833C4.51895 18.8747 4.52341 20.966 4.52341 23.0573H4.52415Z" fill="#FFF1F1"/>
<path id="Vector_5" d="M27.9893 13.8229C27.9893 13.6443 27.9797 13.4092 27.9916 13.1764C28.0109 12.7954 28.2518 12.5574 28.5953 12.5626C28.938 12.567 29.1618 12.8088 29.1737 13.1965C29.1804 13.4182 29.1752 13.6406 29.1752 13.8876C29.3239 13.927 29.4629 13.9635 29.6012 14.0014C30.6273 14.2849 31.373 14.9039 31.8243 15.8703C32.0049 16.2572 31.8971 16.6002 31.5648 16.7497C31.2444 16.894 30.9269 16.7735 30.7559 16.3837C30.1589 15.0222 28.4302 14.7023 27.2421 15.4462C26.2109 16.0913 26.2406 17.455 27.3284 17.9862C27.8072 18.2205 28.3537 18.3321 28.8808 18.4482C29.6339 18.6141 30.3715 18.8016 31.0109 19.2591C32.6882 20.4584 32.5239 22.8094 30.6808 23.7267C30.2228 23.9544 29.712 24.0749 29.1745 24.2616C29.1745 24.4499 29.1841 24.6954 29.1722 24.9402C29.1551 25.2809 28.9328 25.5063 28.6183 25.5205C28.286 25.5361 28.0273 25.3181 27.9975 24.9669C27.9767 24.7222 27.9938 24.4737 27.9938 24.2014C27.7603 24.1389 27.5343 24.0905 27.3165 24.0191C26.1871 23.6471 25.3901 22.9329 25.0473 21.7686C24.9403 21.4055 25.1046 21.0841 25.4176 20.9881C25.7455 20.8884 26.08 21.0395 26.1693 21.4055C26.4169 22.424 27.4369 23.0884 28.7507 23.008C29.231 22.979 29.7365 22.854 30.1693 22.645C31.1931 22.151 31.2577 20.9056 30.3306 20.233C29.7507 19.8127 29.0555 19.7286 28.3849 19.5627C27.8488 19.4302 27.2964 19.2971 26.8079 19.0516C24.9202 18.103 24.7879 15.6516 26.5566 14.4873C26.9715 14.2142 27.4659 14.061 27.9901 13.8229H27.9893Z" fill="#ED3338"/>
<path id="Vector_6" d="M28.5678 3.74416C27.405 3.74862 26.4771 4.68231 26.4756 5.84813C26.4741 7.0251 27.4302 7.9826 28.5953 7.97144C29.747 7.96103 30.6919 7.00948 30.6957 5.85706C30.6994 4.68529 29.747 3.73969 28.5678 3.74416ZM28.5752 6.78108C28.0615 6.77736 27.6511 6.34287 27.6667 5.81837C27.6815 5.30874 28.0919 4.92262 28.6064 4.93378C29.1128 4.94494 29.5135 5.36157 29.5038 5.86822C29.4949 6.36743 29.0711 6.7848 28.5752 6.78108Z" fill="#ED3338"/>
<path id="Vector_7" d="M29.5036 5.8683C29.4947 6.36825 29.0702 6.78488 28.575 6.78116C28.0612 6.77744 27.6508 6.34296 27.6664 5.81845C27.6813 5.30883 28.0917 4.92196 28.6062 4.93386C29.1125 4.94502 29.5133 5.36165 29.5036 5.8683Z" fill="#FFF1F1"/>
</g>
</g>
</svg>
