<svg width="36" height="37" viewBox="0 0 36 37" fill="none" xmlns="http://www.w3.org/2000/svg">
<path d="M34.6832 19.4745C34.5236 19.1813 34.3867 18.8744 34.2603 18.5651C33.8763 17.6244 33.801 16.6796 34.2077 15.7164C34.4102 15.2363 34.5649 14.7362 34.727 14.2408C35.5938 11.591 34.2036 8.83402 31.5544 7.94806C30.9679 7.75153 30.3845 7.54212 29.7858 7.3907C28.8274 7.14746 28.1194 6.58447 27.6187 5.76697C27.2282 5.12827 26.8831 4.46057 26.542 3.79288C25.1979 1.1672 22.2425 0.22324 19.6087 1.57957C18.9282 1.92993 18.2436 2.27465 17.5436 2.58394C16.6111 2.99631 15.6592 3.07122 14.6805 2.69267C14.1045 2.47118 13.5066 2.30526 12.9128 2.1329C10.3567 1.3911 7.67674 2.77563 6.81716 5.28291C6.54009 6.09316 6.27841 6.90825 6.02888 7.72737C5.82959 8.37896 5.48041 8.93792 4.92464 9.31647C4.28381 9.75301 3.61057 10.1533 2.91708 10.5012C0.195776 11.8656 -0.766686 14.8215 0.650273 17.5052C1.00674 18.1793 1.35349 18.8607 1.65648 19.5598C2.02672 20.412 2.07776 21.2875 1.73669 22.1783C1.53658 22.7018 1.38832 23.2463 1.22224 23.7827C0.379682 26.5066 1.84525 29.2314 4.586 30.0698C5.25276 30.2736 5.91627 30.5015 6.55629 30.7762C7.30731 31.0991 7.86793 31.6428 8.23169 32.3894C8.56548 33.0748 8.92518 33.749 9.29218 34.4183C10.4815 36.5929 13.3211 37.5933 15.5579 36.543C16.3843 36.1548 17.205 35.7521 18.0086 35.3188C18.7216 34.9354 19.4742 34.8291 20.2382 34.9966C21.1026 35.1851 21.9533 35.4444 22.7966 35.715C25.5763 36.6042 28.3559 35.1641 29.2252 32.3798C29.4683 31.6017 29.7259 30.8253 30.0346 30.0722C30.3659 29.2652 30.9427 28.6635 31.7537 28.2882C32.3014 28.0337 32.8385 27.7526 33.3667 27.4602C34.633 26.7603 35.444 25.7012 35.8085 24.3102C35.896 23.9776 35.9373 23.6329 35.9997 23.2938V23.1327C35.9641 21.7699 35.3119 20.6278 34.6832 19.4745ZM32.5387 26.4422C32.051 26.6983 31.5593 26.9464 31.0707 27.2009C29.8571 27.834 29.0332 28.7989 28.6038 30.0932C28.3972 30.715 28.202 31.3408 28.0011 31.9642C27.3019 34.1364 25.3494 35.152 23.1661 34.4787C22.5374 34.2846 21.9087 34.0873 21.2817 33.8883C19.9174 33.4558 18.6017 33.5678 17.3322 34.2258C16.6994 34.5528 16.0667 34.8798 15.4307 35.1995C13.4223 36.2079 11.3394 35.541 10.2911 33.5557C9.98487 32.975 9.68754 32.3902 9.38292 31.8087C8.70725 30.52 7.66215 29.68 6.26626 29.2499C5.62462 29.0526 4.97649 28.8576 4.36888 28.5798C3.0224 27.9644 2.34268 26.8811 2.25195 25.1358C2.39291 24.6002 2.52902 23.7883 2.81824 23.0352C3.48014 21.3132 3.35862 19.6887 2.42208 18.1061C2.15716 17.6566 1.92951 17.1846 1.69942 16.7167C0.770176 14.8272 1.45638 12.7299 3.3254 11.7408C3.788 11.4951 4.25546 11.2592 4.72292 11.0224C6.01349 10.3684 6.86901 9.3511 7.30488 7.98027C7.51471 7.31741 7.73021 6.65616 7.94247 5.9941C8.65783 3.75824 10.6127 2.7571 12.8682 3.45299C13.727 3.71797 14.5873 3.99665 15.4672 4.16579C16.4758 4.3607 17.4456 4.1086 18.3578 3.65273C19.0067 3.32895 19.6484 2.99067 20.3006 2.67173C22.236 1.72455 24.3157 2.38822 25.3349 4.27855C25.6589 4.87939 25.966 5.4899 26.2844 6.09397C26.9211 7.3013 27.8949 8.11719 29.1944 8.54648C29.8069 8.74865 30.4242 8.9355 31.0375 9.13605C33.101 9.8118 34.0894 11.5974 33.5255 13.6867C33.3238 14.4341 33.0046 15.1501 32.8053 15.8976C32.4942 17.0646 32.6133 18.2091 33.1528 19.2973C33.4858 19.9682 33.8415 20.6294 34.1834 21.2963C35.2131 23.3026 34.5471 25.3879 32.5387 26.4422Z" fill="#ED3338"/>
<path d="M34.1829 21.2958C33.841 20.6289 33.4853 19.9677 33.1524 19.2967C32.6128 18.2086 32.4937 17.0641 32.8048 15.897C33.0041 15.1496 33.3233 14.4336 33.525 13.6862C34.0889 11.5969 33.1005 9.81126 31.037 9.13551C30.4238 8.93496 29.8064 8.7481 29.1939 8.54594C27.8945 8.11665 26.9207 7.30076 26.2839 6.09343C25.9655 5.48936 25.6584 4.87885 25.3344 4.278C24.3152 2.38768 22.2355 1.72401 20.3001 2.67119C19.6479 2.99013 19.0063 3.32841 18.3573 3.65219C17.4451 4.10806 16.4753 4.36016 15.4667 4.16525C14.5869 3.99611 13.7265 3.71743 12.8677 3.45245C10.6123 2.75656 8.65735 3.7577 7.94199 5.99356C7.72973 6.65561 7.51423 7.31687 7.3044 7.97973C6.86853 9.35056 6.01301 10.3678 4.72244 11.0218C4.25498 11.2586 3.78752 11.4946 3.32492 11.7403C1.4559 12.7293 0.769695 14.8266 1.69894 16.7162C1.92903 17.1841 2.15668 17.6561 2.4216 18.1055C3.35814 19.6882 3.47966 21.3127 2.81776 23.0347C2.52854 23.7878 2.39243 24.5996 2.25147 25.1352C2.3422 26.8806 3.02192 27.9639 4.3684 28.5792C4.97602 28.8571 5.62414 29.052 6.26578 29.2493C7.66168 29.6794 8.70677 30.5195 9.38244 31.8082C9.68706 32.3897 9.98439 32.9744 10.2906 33.5551C11.339 35.5405 13.4219 36.2074 15.4302 35.199C16.0662 34.8793 16.6989 34.5523 17.3317 34.2253C18.6012 33.5672 19.9169 33.4553 21.2812 33.8878C21.9082 34.0867 22.5369 34.284 23.1656 34.4782C25.349 35.1515 27.3014 34.1359 28.0006 31.9636C28.2015 31.3402 28.3968 30.7144 28.6033 30.0926C29.0327 28.7983 29.8567 27.8334 31.0703 27.2004C31.5588 26.9458 32.0506 26.6978 32.5383 26.4416C34.5466 25.3873 35.2126 23.3021 34.1829 21.2958ZM11.6047 24.3024C9.64574 24.3041 7.92579 22.5837 7.92822 20.6241C7.93065 18.6878 9.61496 17.019 11.5658 17.019C13.5353 17.0182 15.2463 18.7273 15.2423 20.6885C15.2382 22.6207 13.5474 24.3 11.6047 24.3024ZM22.4867 28.841C22.1715 28.9868 21.9066 28.8789 21.7057 28.6163C21.6344 28.5221 21.5907 28.4053 21.5404 28.2965C18.7762 22.2615 16.0136 16.2273 13.2501 10.1922C13.195 10.0706 13.1343 9.94899 13.0978 9.82173C12.982 9.41822 13.276 9.01792 13.7119 9.00262C14.0489 9.0155 14.2345 9.23216 14.3722 9.53661C15.175 11.3029 15.986 13.066 16.7945 14.8299C18.7616 19.1244 20.7286 23.4197 22.6957 27.7142C22.7508 27.8358 22.8116 27.9575 22.8472 28.0855C22.9436 28.4351 22.8059 28.6928 22.4867 28.841ZM24.3533 20.877C22.3044 20.8713 20.7343 19.2935 20.7392 17.2437C20.7432 15.185 22.3052 13.6306 24.3654 13.6338C26.4281 13.6378 27.9852 15.1971 27.9795 17.2558C27.9747 19.308 26.3989 20.8818 24.3533 20.877Z" fill="#FFF1F1"/>
<path d="M13.7117 9.00276C14.0488 9.01565 14.2343 9.2323 14.372 9.53675C15.1749 11.303 15.9858 13.0661 16.7936 14.83C18.7606 19.1245 20.7285 23.419 22.6947 27.7143C22.7506 27.836 22.8106 27.9576 22.8462 28.0848C22.9426 28.4344 22.8049 28.6921 22.4857 28.8403C22.1714 28.9861 21.9064 28.8782 21.7055 28.6164C21.6334 28.5222 21.5897 28.4054 21.5403 28.2959C18.776 22.2616 16.0126 16.2266 13.2499 10.1916C13.194 10.0699 13.1341 9.94833 13.0976 9.82107C12.9818 9.41836 13.2759 9.01806 13.7117 9.00195V9.00276Z" fill="#ED3338"/>
<path d="M24.3655 13.6338C22.3053 13.6306 20.7433 15.185 20.7393 17.2437C20.7344 19.2935 22.3045 20.8713 24.3534 20.877C26.399 20.8818 27.9748 19.308 27.9796 17.2558C27.9853 15.1971 26.4282 13.6378 24.3655 13.6338ZM24.3752 19.5778C23.0822 19.577 22.0104 18.501 22.0209 17.2139C22.0315 15.9357 23.0539 14.9313 24.3445 14.9321C25.6488 14.9329 26.7077 15.9921 26.6988 17.2864C26.6898 18.5565 25.652 19.5794 24.3752 19.5778Z" fill="#ED3338"/>
<path d="M11.5663 17.0195C9.61545 17.0195 7.93114 18.6884 7.92871 20.6246C7.92628 22.5842 9.64624 24.3046 11.6052 24.303C13.5479 24.3006 15.2387 22.6213 15.2428 20.689C15.2468 18.7278 13.5358 17.0187 11.5663 17.0195ZM11.5785 22.9837C10.3 22.9684 9.21524 21.8754 9.22577 20.6141C9.23549 19.3577 10.3324 18.3034 11.6028 18.3291C12.9022 18.3557 13.9514 19.4366 13.9247 20.7213C13.8979 21.9874 12.8488 22.999 11.5785 22.9837Z" fill="#ED3338"/>
<path d="M24.3449 14.9326C25.6493 14.9334 26.7073 15.9917 26.6984 17.2869C26.6895 18.557 25.6525 19.5799 24.3749 19.5783C23.0819 19.5767 22.0109 18.5014 22.0206 17.2144C22.0311 15.9362 23.0535 14.9318 24.3441 14.9326H24.3449Z" fill="#FFF1F1"/>
<path d="M11.5783 22.9831C10.2999 22.9678 9.21513 21.8749 9.22566 20.6136C9.23619 19.3571 10.3331 18.3028 11.6035 18.3286C12.903 18.3552 13.9513 19.436 13.9246 20.7207C13.8986 21.9868 12.8495 22.9992 11.5783 22.9831Z" fill="#FFF1F1"/>
</svg>
